# xmcd CD database file
#
# Track frame offsets:
#	187
#	12105
#	22617
#	34987
#	47992
#	59927
#	70772
#	81115
#	90005
#	99182
#	112750
#	121620
#	130735
#	138162
#	150417
#	161230
#	172447
#	181507
#	192312
#	202762
#
# Disc length: 2841 seconds
#
# Revision: 0
# Processed by: cddbd v1.5.2PL0 Copyright (c) Steve Scherf et al.
# Submitted via: CDex 1.81
#
DISCID=f10b1714
DTITLE=Various Artist - RCA Country Hall of Fame - The Browns best Selection
DYEAR=1900
DGENRE=Country
TTITLE0=H. Pharis - Heard The Bluebirds Sing
TTITLE1=J and M Brown - Looking Back To See
TTITLE2=I and C Lovin - I Take The Chance
TTITLE3=Reisfeld-Villard - The Three Bells
TTITLE4=J. Segal-E. Danzig - Scarlet Ribbons
TTITLE5=C Tobias-N. Simon - The Old Lamplighter
TTITLE6=J. Reeves - Then I'll Stop Loving You
TTITLE7=P.D - Clementine
TTITLE8=J.D. Loudermilk - Big Daddy
TTITLE9=J and M Brown - Here Today Gone Tomorrow
TTITLE10=H. Houser - My Baby's Gone
TTITLE11=I and C Louvin - When I Stop Dreaming
TTITLE12=S. Rogers - Gone
TTITLE13=D and P Everley - Maybe Tomorrow
TTITLE14=L. Penny-L. Massey - My Adobe Hacienda
TTITLE15=I and C Louvin - Streamlined Cannonball
TTITLE16=J. Livingstone-R.Evans - Buttons And Boys
TTITLE17=S. Lebowsky-H.Newman - Wayward Wind
TTITLE18=S. Willet - Don't Let The Stars Get In Your Eyes
TTITLE19=H. Williams-F. Rose - Mansion On The Hill
EXTD=
EXTT0=
EXTT1=
EXTT2=
EXTT3=
EXTT4=
EXTT5=
EXTT6=
EXTT7=
EXTT8=
EXTT9=
EXTT10=
EXTT11=
EXTT12=
EXTT13=
EXTT14=
EXTT15=
EXTT16=
EXTT17=
EXTT18=
EXTT19=
PLAYORDER=
